<svg version="1.1" viewBox="0.0 0.0 560.8950131233596 867.8766404199475" fill="none" stroke="#ffd700" stroke-linecap="square" stroke-miterlimit="10" xmlns:xlink="http://www.w3.org/1999/xlink" xmlns="http://www.w3.org/2000/svg" style=""><g clip-path="url(#p.0)"><path fill="none" d="m285.10522 138.60838c44.094025 0 74.325134 2.4395142 90.69336 7.3185425c25.387451 7.881485 45.819916 24.144913 61.297363 48.790207c15.588776 24.520233 23.383179 54.044556 23.383179 88.573c0 47.664307 -13.194794 84.63226 -39.58438 110.90393c-26.389618 26.271637 -70.98468 39.40747 -133.78525 39.40747l-189.90488 0l0 -294.99316zm-285.10785 -97.39278l0 825.30524l97.207245 0l0 -335.52655l188.40167 0c103.88815 0 175.70795 -24.269989 215.45935 -72.81003c39.751434 -48.6651 59.627167 -108.08908 59.627167 -178.27194c0 -40.908707 -7.460388 -78.43965 -22.381104 -112.592804c-14.809326 -34.153152 -34.406677 -60.67502 -58.791992 -79.565575c-24.385315 -19.015686 -54.616425 -31.901299 -90.69336 -38.656868c-25.721497 -5.2543297 -62.96759 -7.8814964 -111.73822 -7.8814964z" fill-rule="evenodd" class="QerGzLmP_2"></path><path fill="none" d="m285.10522 97.40065c44.094025 0 74.325134 2.4395065 90.69336 7.318527c25.387451 7.8815002 45.819916 24.144913 61.297363 48.790222c15.588776 24.520218 23.383179 54.04454 23.383179 88.573c0 47.664307 -13.194794 84.63226 -39.58438 110.90393c-26.389618 26.271637 -70.98468 39.40747 -133.78525 39.40747l-189.90488 0l0 -294.99316zm-285.10785 -97.39278l0 825.30524l97.207245 0l0 -335.52652l188.40167 0c103.88815 0 175.70795 -24.269989 215.45935 -72.81003c39.751434 -48.6651 59.627167 -108.08908 59.627167 -178.27194c0 -40.908722 -7.460388 -78.43965 -22.381104 -112.592804c-14.809326 -34.153152 -34.406677 -60.675026 -58.791992 -79.56558c-24.385315 -19.015682 -54.616425 -31.901295 -90.69336 -38.656864c-25.721497 -5.2543306 -62.96759 -7.8814964 -111.73822 -7.8814964z" fill-rule="evenodd" class="QerGzLmP_3"></path></g><style data-made-with="vivus-instant">.QerGzLmP_1{stroke-dasharray:2858 2860;stroke-dashoffset:2859;animation:QerGzLmP_draw 5000ms linear 333ms forwards;}.QerGzLmP_2{stroke-dasharray:3779 3781;stroke-dashoffset:3780;animation:QerGzLmP_draw 5000ms linear 666ms forwards;}.QerGzLmP_3{stroke-dasharray:3779 3781;stroke-dashoffset:3780;animation:QerGzLmP_draw 5000ms linear 1000ms forwards;}@keyframes QerGzLmP_draw{100%{stroke-dashoffset:0;}}@keyframes QerGzLmP_fade{0%{stroke-opacity:1;}94.44444444444444%{stroke-opacity:1;}100%{stroke-opacity:0;}}</style></svg>