<?xml version="1.0" encoding="UTF-8" standalone="no"?>
<svg
   version="1.1"
   viewBox="0.0 0.0 560.8950131233596 867.8766404199475"
   fill="none"
   stroke="none"
   stroke-linecap="square"
   stroke-miterlimit="10"
   id="svg134"
   sodipodi:docname="logo-p-outline.svg"
   inkscape:version="1.2.1 (9c6d41e410, 2022-07-14)"
   inkscape:export-filename="logo-p - Copy.svg"
   inkscape:export-xdpi="96"
   inkscape:export-ydpi="96"
   xml:space="preserve"
   xmlns:inkscape="http://www.inkscape.org/namespaces/inkscape"
   xmlns:sodipodi="http://sodipodi.sourceforge.net/DTD/sodipodi-0.dtd"
   xmlns="http://www.w3.org/2000/svg"
   xmlns:svg="http://www.w3.org/2000/svg"><defs
     id="defs138" /><sodipodi:namedview
     id="namedview136"
     pagecolor="#ffffff"
     bordercolor="#000000"
     borderopacity="0.25"
     inkscape:showpageshadow="2"
     inkscape:pageopacity="0.0"
     inkscape:pagecheckerboard="0"
     inkscape:deskcolor="#d1d1d1"
     showgrid="false"
     showguides="true"
     inkscape:zoom="2.8581603"
     inkscape:cx="367.71906"
     inkscape:cy="520.61461"
     inkscape:window-width="1920"
     inkscape:window-height="1057"
     inkscape:window-x="-8"
     inkscape:window-y="-8"
     inkscape:window-maximized="1"
     inkscape:current-layer="svg134" /><clipPath
     id="p.0"><path
       d="m0 0l560.895 0l0 867.87665l-560.895 0l0 -867.87665z"
       clip-rule="nonzero"
       id="path123" /></clipPath><path
     style="fill:#000000;stroke-width:1.00015"
     d="m 0.11308292,1.4843956 288.82566708,0.061871 48.15105,1.5749781 42.85781,4.5499374 25.01497,5.0749319 29.03835,9.274872 21.34144,9.974864 17.84285,11.024849 19.24228,15.924777 18.01777,19.949729 13.4696,20.124728 12.9448,24.849657 12.42003,32.89955 4.54817,17.32477 5.94762,37.97448 1.22451,31.84956 -0.34986,22.57469 -0.17494,33.59954 -0.67481,16.33516 -2.1045,20.18497 -2.04392,10.42111 -4.14327,13.98336 -6.79727,19.67978 -8.85625,26.88649 -11.1605,21.42155 -16.61325,23.47346 -20.4666,23.21998 -21.25142,17.17355 -26.58427,13.96393 -24.43543,9.18441 -30.84772,8.33949 -41.66348,6.32455 -46.32643,1.98003 -42.85782,0.175 H 97.610849 l -0.174923,43.2244 0.174923,292.421 H 0 Z"
     id="path198"
     sodipodi:nodetypes="ccccccccccccccccccccccccccccccccccccccc" /><g
     style="fill:none;stroke:none;stroke-linecap:square;stroke-miterlimit:10"
     id="g318"
     transform="translate(-141.19577,-37.179607)"><g
       clip-path="url(#p.0-6)"
       id="g306"><path
         fill="#000000"
         fill-opacity="0"
         d="M 0,0 H 560.895 V 867.87665 H 0 Z"
         fill-rule="evenodd"
         id="path300" /><path
         fill="#ffd404"
         d="m 427.6072,178.19226 c 44.09402,0 74.32513,2.43951 90.69336,7.31854 25.38745,7.88149 45.81992,24.14492 61.29736,48.79021 15.58878,24.52023 23.38318,54.04456 23.38318,88.573 0,47.66431 -13.19479,84.63226 -39.58438,110.90393 -26.38962,26.27164 -70.98468,39.40747 -133.78525,39.40747 H 239.7066 V 178.19225 Z M 142.49935,80.799484 V 906.10472 H 239.7066 V 570.57817 h 188.40166 c 103.88815,0 175.70795,-24.26999 215.45935,-72.81003 39.75144,-48.6651 59.62717,-108.08908 59.62717,-178.27194 0,-40.90871 -7.46039,-78.43965 -22.3811,-112.5928 C 666.00435,172.75024 646.407,146.22838 622.02169,127.33783 597.63637,108.32214 567.40526,95.436526 531.32833,88.680957 505.60683,83.426627 468.36074,80.799461 419.59011,80.799461 Z"
         fill-rule="evenodd"
         id="path302" /><path
         fill="#115173"
         d="m 427.6072,136.98453 c 44.09402,0 74.32513,2.43951 90.69336,7.31853 25.38745,7.8815 45.81992,24.14491 61.29736,48.79022 15.58878,24.52022 23.38318,54.04454 23.38318,88.573 0,47.66431 -13.19479,84.63226 -39.58438,110.90393 -26.38962,26.27164 -70.98468,39.40747 -133.78525,39.40747 H 239.7066 V 136.98452 Z M 142.49935,39.591754 V 864.89699 H 239.7066 V 529.37047 h 188.40166 c 103.88815,0 175.70795,-24.26999 215.45935,-72.81003 39.75144,-48.6651 59.62717,-108.08908 59.62717,-178.27194 0,-40.90872 -7.46039,-78.43965 -22.3811,-112.5928 C 666.00435,131.54255 646.407,105.02067 622.02169,86.13012 597.63637,67.114438 567.40526,54.228825 531.32833,47.473256 505.60683,42.218926 468.36074,39.59176 419.59011,39.59176 Z"
         fill-rule="evenodd"
         id="path304" /></g></g></svg>
