<svg version="1.1" viewBox="0.0 0.0 575.7664041994751 136.70603674540683" fill="none" stroke="none" stroke-linecap="square" stroke-miterlimit="10" xmlns:xlink="http://www.w3.org/1999/xlink" xmlns="http://www.w3.org/2000/svg"><clipPath id="p.0"><path d="m0 0l575.7664 0l0 136.70604l-575.7664 0l0 -136.70604z" clip-rule="nonzero"/></clipPath><g clip-path="url(#p.0)"><path fill="#000000" fill-opacity="0.0" d="m0 0l575.7664 0l0 136.70604l-575.7664 0z" fill-rule="evenodd"/><path fill="#ffffff" d="m39.281048 27.602272c2.02425 0 3.8610725 0.4648304 5.510456 1.3944836c1.6643829 0.9146614 2.9988785 2.2041817 4.0035133 3.8685627c1.0196152 1.6493874 1.5294304 3.6736374 1.5294304 6.0727463c0 2.2941513 -0.5098152 4.3183975 -1.5294304 6.0727463c-1.0046349 1.7543526 -2.3391304 3.1413383 -4.0035133 4.1609573c-1.6493835 1.004631 -3.486206 1.5069427 -5.510456 1.5069427l-15.339308 0l0 -23.076439zm-38.415745 -20.737303l0 96.7366l23.481287 0l0 -32.342995l18.240732 0c6.0877457 0 11.500744 -1.4244766 16.238972 -4.2734146c4.7382507 -2.863945 8.509354 -6.755001 11.313301 -11.673172c2.8189468 -4.9331665 4.2284317 -10.533588 4.2284317 -16.801266c0 -5.9827766 -1.4094849 -11.365778 -4.2284317 -16.149006c-2.8039627 -4.798218 -6.5750732 -8.576815 -11.313301 -11.335793c-4.738247 -2.7739716 -10.151249 -4.160956 -16.238972 -4.160956z" fill-rule="evenodd"/><path fill="#ffffff" d="m133.10107 28.704365c-3.868576 0 -7.5122147 0.9221573 -10.930946 2.7664719c-3.40374 1.8443146 -6.3726425 4.333393 -8.9066925 7.467228c-0.65309906 0.8124809 -1.2588196 1.6526718 -1.8171692 2.520584l0 0l-0.45449066 -11.224852l-21.007202 0l0 73.367775l22.24424 0l0 -36.751366c0 -2.2191696 0.34487915 -4.198433 1.0346222 -5.9377937c0.7047348 -1.7543488 1.6493912 -3.276287 2.8339462 -4.5658035c1.1995544 -1.2895203 2.676506 -2.279152 4.430855 -2.9688988c1.7543488 -0.68974686 3.6436462 -1.0346184 5.6678925 -1.0346184c1.8443222 0 3.613655 0.20992279 5.308037 0.6297684c1.7093658 0.40485 3.0738525 0.92965317 4.0934753 1.5744171l6.072754 -24.47092c-1.1995697 -0.3598671 -2.5115814 -0.6747494 -3.9360504 -0.94464874c-1.424469 -0.28489685 -2.9688873 -0.42734146 -4.6332703 -0.42734146z" fill-rule="evenodd"/><path fill="#ffffff" d="m182.99544 47.349945c3.4037476 0 6.3501587 0.8097 8.839218 2.4290962c2.48909 1.6044044 4.4233704 3.861065 5.8028564 6.769989c1.3794861 2.9089203 2.0692291 6.3426476 2.0692291 10.301174c0 3.9585342 -0.68974304 7.3922577 -2.0692291 10.301178c-1.3794861 2.8939285 -3.3137665 5.1280975 -5.8028564 6.7025146c-2.4890594 1.5594254 -5.4354706 2.3391342 -8.839218 2.3391342c-3.3137665 0 -6.1927032 -0.77970886 -8.636795 -2.3391342c-2.4440918 -1.5744171 -4.3558807 -3.8085861 -5.735367 -6.7025146c-1.3794861 -2.9089203 -2.0692291 -6.3426437 -2.0692291 -10.301178c0 -3.9585266 0.68974304 -7.392254 2.0692291 -10.301174c1.3794861 -2.9089165 3.291275 -5.1655807 5.735367 -6.769989c2.4440918 -1.6193962 5.3230286 -2.4290962 8.636795 -2.4290962zm-5.397995 -18.64558c-6.3576355 0 -12.025528 1.6343937 -17.003693 4.903179c-4.96315 3.2687874 -8.876694 7.7596207 -11.740631 13.4725c-2.848938 5.712879 -4.2734222 12.302937 -4.2734222 19.77016c0 7.2723083 1.4244843 13.787384 4.2734222 19.54525c2.8639374 5.757866 6.7100067 10.271187 11.538208 13.539978c4.843216 3.2687912 10.346161 4.9031754 16.50888 4.9031754c3.3287659 0 6.4626007 -0.5023117 9.4015045 -1.5069351c2.9539032 -1.0196304 5.6229095 -2.3991165 8.007034 -4.138466c1.7659607 -1.2913742 3.3328857 -2.7330322 4.70076 -4.324997l0 0l0 8.73336l22.401672 0l0 -73.367775l-21.974335 0l0 8.890028l0 0c-1.3237457 -1.7280312 -2.8456879 -3.2893944 -4.565811 -4.6840897c-2.2041779 -1.7993317 -4.760727 -3.2013092 -7.669647 -4.2059383c-2.893921 -1.0196209 -6.0952454 -1.5294323 -9.603943 -1.5294323z" fill-rule="evenodd"/><path fill="#ffffff" d="m274.33167 47.080044c3.4037476 0 6.3501587 0.83219147 8.839233 2.4965744c2.4890747 1.6493874 4.4008484 3.9510307 5.735382 6.9049377c1.3345032 2.9539032 2.0017395 6.455105 2.0017395 10.503605c0 3.9585266 -0.6672363 7.4147415 -2.0017395 10.368652c-1.3345337 2.9389038 -3.2463074 5.240555 -5.735382 6.9049377c-2.4890747 1.6493912 -5.435486 2.4740753 -8.839233 2.4740753c-3.403717 0 -6.3276367 -0.82468414 -8.7717285 -2.4740753c-2.4440918 -1.6643829 -4.355896 -3.966034 -5.735382 -6.9049377c-1.3794861 -2.9539108 -2.0692139 -6.4101257 -2.0692139 -10.368652c0 -4.0485 0.6897278 -7.5497017 2.0692139 -10.503605c1.3794861 -2.9539032 3.2912903 -5.2555466 5.735382 -6.9049377c2.4440918 -1.6643829 5.3680115 -2.4965744 8.7717285 -2.4965744zm16.03656 -45.74802l0 36.077732l0 0c-1.0662842 -1.0855904 -2.2658386 -2.0980911 -3.5986633 -3.0374947c-2.4890747 -1.7543488 -5.255554 -3.1338348 -8.299438 -4.138464c-3.0288696 -1.0196209 -6.207672 -1.5294323 -9.536438 -1.5294323c-6.4476013 0 -12.160492 1.656887 -17.138641 4.9706535c-4.9631653 3.3137703 -8.876709 7.8495865 -11.740646 13.607452c-2.8489532 5.757862 -4.2734222 12.325424 -4.2734222 19.70269c0 7.3622665 1.424469 13.922333 4.2734222 19.680191c2.8639374 5.757866 6.7549896 10.278687 11.673172 13.5624695c4.9331665 3.2687912 10.578583 4.903183 16.936218 4.903183c3.403717 0 6.6500244 -0.48731995 9.738861 -1.4619598c3.0888672 -0.9596405 5.832855 -2.241661 8.231964 -3.8460693c1.8657227 -1.2593613 3.4639282 -2.6683502 4.7946167 -4.226959l0 0l0.60336304 8.005554l20.579865 0l0 -102.26955z" fill-rule="evenodd"/><path fill="#ffffff" d="m322.15283 30.233797l32.728363 71.32409l0 0l-14.352661 33.824394l21.974335 0l12.707794 -31.780708l31.240906 -73.367775l-25.168182 0l-13.539978 38.820595c-0.74694824 2.1730118 -1.4385681 4.2107162 -2.074829 6.113106l0 0c-0.20840454 -0.69382477 -0.43893433 -1.3970184 -0.6916199 -2.1095886c-0.7347412 -2.1142197 -1.5144653 -4.093483 -2.3391418 -5.9377975l-15.474274 -36.886314z" fill-rule="evenodd"/><path fill="#ffffff" d="m416.10672 30.233797l0 45.320686c0 6.162712 1.0346375 11.4557495 3.1038513 15.879105c2.0842285 4.423355 5.038147 7.8120956 8.861725 10.166229c3.823578 2.3541183 8.449371 3.531189 13.87735 3.531189c4.0634766 0 7.8870544 -0.8022003 11.470734 -2.4066086c3.5986633 -1.6194 6.6875305 -3.7861023 9.266571 -6.5000916c0.6208801 -0.6569748 1.1991882 -1.3361206 1.7348938 -2.0374222l0 0l0.60424805 9.414688l20.872253 0l0 -73.367775l-22.244263 0l0 43.791252c0 1.8443146 -0.3223877 3.531189 -0.96713257 5.060623c-0.6447449 1.5144348 -1.5444336 2.8489456 -2.6990051 4.0035095c-1.1545715 1.1395721 -2.541565 2.0317383 -4.1609497 2.676506c-1.6044006 0.64476013 -3.3737488 0.9671402 -5.3080444 0.9671402c-2.5790405 0 -4.7907104 -0.5697861 -6.63501 -1.7093658c-1.8443298 -1.1545715 -3.223816 -2.7889633 -4.138489 -4.9031754c-0.91464233 -2.1292114 -1.3719788 -4.6632614 -1.3719788 -7.6021805l0 -42.28431z" fill-rule="evenodd"/><path fill="#ffffff" d="m549.4698 28.704365c-4.048523 0 -7.9171143 0.83218956 -11.605713 2.4965725c-3.6886597 1.6493855 -6.8449707 3.8385715 -9.468994 6.567564c-0.46191406 0.47777557 -0.8989868 0.96484375 -1.3112183 1.4612083l0 0l-0.4206543 -8.995913l-21.007172 0l0 73.367775l22.109283 0l0 -43.948692c0 -1.7543488 0.34484863 -3.366253 1.0346069 -4.835705c0.6897583 -1.4694519 1.6343994 -2.7814636 2.8339844 -3.936039c1.1995239 -1.1545677 2.6239624 -2.031746 4.2733765 -2.6315231c1.6643677 -0.59978104 3.463745 -0.89966583 5.3980103 -0.89966583c0.21032715 -0.0076065063 0.4179077 -0.011405945 0.62268066 -0.011405945c2.2183838 0 4.1100464 0.44613647 5.674988 1.3384132c1.7093506 0.9596443 2.9763794 2.4066048 3.8010864 4.340889c0.82470703 1.9342804 1.2370605 4.378376 1.2370605 7.332279l0 43.25145l22.244202 0l0 -45.05078c0 -6.447609 -0.96710205 -11.905586 -2.9014282 -16.373924c-1.9342651 -4.4683456 -4.7907104 -7.827095 -8.569275 -10.07626c-3.7636108 -2.264162 -8.411926 -3.3962402 -13.944824 -3.3962402z" fill-rule="evenodd"/></g></svg>